<svg width="282" height="205" viewBox="0 0 282 205" fill="none" xmlns="http://www.w3.org/2000/svg">
<g clip-path="url(#clip0)">
<path d="M49.4741 150.962C48.858 147.388 47.0712 144.184 45.839 140.795C44.2371 136.42 45.038 132.908 46.1471 128.595C47.8722 122.063 47.9338 114.793 44.5451 108.816C43.621 107.214 42.3887 105.797 41.4645 104.133C40.4171 102.346 39.9859 100.005 39.7394 97.9712C39.5546 96.061 39.9242 94.0893 39.801 92.1175C39.7394 90.4539 39.4313 88.7902 39.0001 87.1266C37.7678 82.5669 34.5024 76.7133 29.0805 76.7749C22.6729 76.8365 21.0094 84.6003 21.2558 89.6529C21.379 93.165 21.9952 96.8621 20.7629 100.251C19.4075 103.886 15.834 106.105 13.8008 109.37C10.7818 114.115 10.1657 120.338 12.2605 125.576C13.4311 128.533 16.0188 131.183 16.142 134.51C16.2652 138.33 12.0756 140.61 10.104 143.506C6.90022 148.312 6.71538 154.597 8.93342 159.773C14.5401 171.48 29.9431 175.547 40.8484 168.954C41.0333 168.954 41.2181 168.954 41.3413 168.831C46.8864 164.641 50.7063 158.048 49.4741 150.962Z" fill="#BFEAFF"/>
<path d="M29.5737 180.353C29.697 174.684 29.7586 169.077 29.8202 163.408C26.3699 159.588 23.5358 155.398 21.2561 150.777C20.9481 150.161 21.9338 149.791 22.2419 150.407C24.2751 154.536 26.8628 158.418 29.8818 161.868C29.9434 157.062 30.005 152.317 30.0666 147.511C30.005 147.511 30.005 147.45 29.9434 147.388C26.4315 143.445 23.4125 139.131 20.9481 134.448C20.64 133.832 21.6258 133.463 21.9338 134.079C24.2135 138.392 26.9244 142.335 30.1282 145.971C30.1899 141.473 30.2515 136.975 30.2515 132.538C27.9102 129.642 25.8154 126.561 23.967 123.357C23.659 122.803 24.4599 122.125 24.768 122.741C26.3699 125.576 28.2183 128.348 30.1899 130.936C30.2515 126.438 30.2515 122.002 30.3131 117.504C30.2515 117.504 30.1899 117.442 30.1282 117.381C28.5263 115.532 27.0476 113.622 25.6922 111.65C25.3225 111.096 26.1235 110.479 26.4931 111.034C27.7254 112.759 28.9576 114.423 30.3131 116.025C30.3131 113.006 30.3747 110.048 30.3747 107.029C30.3747 106.351 31.4221 106.228 31.4221 106.906C31.4221 111.034 31.3605 115.162 31.2989 119.291C32.4079 117.381 33.5785 115.47 34.7491 113.622C35.1188 113.067 35.9198 113.683 35.5501 114.238C34.0098 116.579 32.5927 118.921 31.2373 121.386C31.1756 125.021 31.1756 128.656 31.114 132.292C31.114 132.353 31.114 132.353 31.114 132.415C31.114 134.448 31.0524 136.482 31.0524 138.515C34.0714 135.126 36.7207 131.429 38.9388 127.362C39.2468 126.808 40.2326 127.239 39.8629 127.794C37.3985 132.23 34.4411 136.359 30.9908 140.056C30.9292 145.231 30.8676 150.407 30.806 155.645C33.2705 152.995 35.7349 150.346 38.1994 147.696C38.6307 147.203 39.4933 147.819 39.0004 148.312C36.2278 151.27 33.5169 154.228 30.7444 157.124C30.6211 164.887 30.4979 172.651 30.3747 180.476C30.5595 181.154 29.5121 181.031 29.5737 180.353Z" fill="#49A6D6"/>
<path d="M28.8345 35.9844H234.557" stroke="#BFEAFF" stroke-width="1.9411" stroke-miterlimit="10"/>
<path d="M221.988 187.932H41.3413C34.4408 187.932 28.7725 182.325 28.7725 175.362V27.7276C28.7725 20.8265 34.3792 15.1577 41.3413 15.1577H221.988C228.888 15.1577 234.556 20.7649 234.556 27.7276V175.362C234.556 182.325 228.95 187.932 221.988 187.932Z" stroke="#BFEAFF" stroke-width="1.9411" stroke-miterlimit="10"/>
<path d="M49.1045 25.8175C49.1045 27.4196 47.8107 28.7135 46.2087 28.7135C44.6068 28.7135 43.313 27.4196 43.313 25.8175C43.313 24.2155 44.6068 22.9215 46.2087 22.9215C47.8107 22.9215 49.1045 24.2155 49.1045 25.8175Z" stroke="#BFEAFF" stroke-width="1.9411" stroke-miterlimit="10"/>
<path d="M60.3794 25.8175C60.3794 27.4196 59.0856 28.7135 57.4837 28.7135C55.8817 28.7135 54.5879 27.4196 54.5879 25.8175C54.5879 24.2155 55.8817 22.9215 57.4837 22.9215C59.0856 22.9215 60.3794 24.2155 60.3794 25.8175Z" stroke="#BFEAFF" stroke-width="1.9411" stroke-miterlimit="10"/>
<path d="M71.6543 25.8175C71.6543 27.4196 70.3605 28.7135 68.7586 28.7135C67.1566 28.7135 65.8628 27.4196 65.8628 25.8175C65.8628 24.2155 67.1566 22.9215 68.7586 22.9215C70.3605 22.9215 71.6543 24.2155 71.6543 25.8175Z" stroke="#BFEAFF" stroke-width="1.9411" stroke-miterlimit="10"/>
<path d="M126.243 201.241C156.556 198.53 252.979 205.246 245.092 192.738C243.86 190.89 237.576 188.363 242.751 186.515C246.571 185.098 253.533 184.112 260.31 183.434C277.993 181.585 284.462 178.751 279.903 175.116C267.642 165.38 202.457 169.508 168.262 173.452C143.987 176.348 115.214 177.519 89.9533 176.286C70.1759 175.301 57.7302 172.404 34.5641 174.007C13.9857 175.362 11.0284 179.244 17.1279 182.571C20.5782 184.666 23.0427 185.529 16.327 187.809C10.6587 190.027 0.67754 191.875 -0.000192196 194.34C-0.123416 196.99 6.22262 199.454 18.3602 200.132C28.2797 200.687 37.2751 200.132 47.0714 200.379C68.882 200.995 83.0528 207.157 110.039 204.199C116.755 203.398 120.513 201.857 127.845 201.241" fill="#F3F4F5"/>
<path opacity="0.5" d="M247.495 182.756C261.111 182.756 272.14 181.524 272.14 179.983C272.14 178.443 261.111 177.211 247.495 177.211C233.879 177.211 222.85 178.443 222.85 179.983C222.85 181.524 233.879 182.756 247.495 182.756Z" fill="#A3A8AF"/>
<path d="M164.196 193.909H152.12C151.812 193.909 151.565 194.155 151.565 194.463C151.565 194.772 151.812 195.018 152.12 195.018H164.196C164.504 195.018 164.75 194.772 164.75 194.463C164.75 194.094 164.504 193.909 164.196 193.909Z" fill="#49A6D6"/>
<path d="M148.238 193.909H145.897C145.589 193.909 145.342 194.155 145.342 194.463C145.342 194.772 145.589 195.018 145.897 195.018H148.238C148.546 195.018 148.793 194.772 148.793 194.463C148.793 194.155 148.546 193.909 148.238 193.909Z" fill="#49A6D6"/>
<path d="M158.527 198.099C158.527 198.407 158.281 198.653 157.973 198.653H156.433C156.124 198.653 155.878 198.407 155.878 198.099C155.878 197.791 156.124 197.544 156.433 197.544H157.973C158.281 197.606 158.527 197.791 158.527 198.099ZM154.338 198.099C154.338 198.407 154.091 198.653 153.783 198.653H151.134C150.826 198.653 150.579 198.407 150.579 198.099C150.579 197.791 150.826 197.544 151.134 197.544H153.783C154.091 197.606 154.338 197.791 154.338 198.099ZM149.039 198.099C149.039 198.407 148.793 198.653 148.485 198.653H145.835C145.527 198.653 145.281 198.407 145.281 198.099C145.281 197.791 145.527 197.544 145.835 197.544H148.485C148.793 197.606 149.039 197.791 149.039 198.099Z" fill="#49A6D6"/>
<path d="M210.22 189.411C209.912 189.411 209.666 189.657 209.666 189.965V191.198C209.666 191.506 209.912 191.752 210.22 191.752C210.528 191.752 210.775 191.506 210.775 191.198V189.965C210.713 189.657 210.466 189.411 210.22 189.411Z" fill="#49A6D6"/>
<path d="M208.803 188.179H207.571C207.263 188.179 207.016 188.425 207.016 188.733C207.016 189.041 207.263 189.288 207.571 189.288H208.803C209.111 189.288 209.357 189.041 209.357 188.733C209.357 188.425 209.111 188.179 208.803 188.179Z" fill="#49A6D6"/>
<path d="M210.22 185.652C209.912 185.652 209.666 185.899 209.666 186.207V187.439C209.666 187.747 209.912 187.994 210.22 187.994C210.528 187.994 210.775 187.747 210.775 187.439V186.207C210.713 185.837 210.466 185.652 210.22 185.652Z" fill="#49A6D6"/>
<path d="M212.808 188.117H211.576C211.267 188.117 211.021 188.363 211.021 188.672C211.021 188.98 211.267 189.226 211.576 189.226H212.808C213.116 189.226 213.362 188.98 213.362 188.672C213.362 188.302 213.116 188.117 212.808 188.117Z" fill="#49A6D6"/>
<path d="M28.5877 11.1527C28.2797 11.1527 28.0332 11.3992 28.0332 11.7073V12.9396C28.0332 13.2477 28.2797 13.4942 28.5877 13.4942C28.8958 13.4942 29.1422 13.2477 29.1422 12.9396V11.7073C29.1422 11.3992 28.8958 11.1527 28.5877 11.1527Z" fill="#49A6D6"/>
<path d="M27.1705 9.92029H25.9383C25.6302 9.92029 25.3838 10.1668 25.3838 10.4748C25.3838 10.7829 25.6302 11.0294 25.9383 11.0294H27.1705C27.4786 11.0294 27.725 10.7829 27.725 10.4748C27.725 10.1668 27.4786 9.92029 27.1705 9.92029Z" fill="#49A6D6"/>
<path d="M28.5877 7.39404C28.2797 7.39404 28.0332 7.64051 28.0332 7.9486V9.18094C28.0332 9.48902 28.2797 9.73549 28.5877 9.73549C28.8958 9.73549 29.1422 9.48902 29.1422 9.18094V7.9486C29.1422 7.64051 28.8958 7.39404 28.5877 7.39404Z" fill="#49A6D6"/>
<path d="M31.1754 9.85876H29.9432C29.6351 9.85876 29.3887 10.1052 29.3887 10.4133C29.3887 10.7214 29.6351 10.9679 29.9432 10.9679H31.1754C31.4835 10.9679 31.7299 10.7214 31.7299 10.4133C31.7299 10.1052 31.4835 9.85876 31.1754 9.85876Z" fill="#49A6D6"/>
<path d="M106.404 5.54551H118.48C118.788 5.54551 119.034 5.29904 119.034 4.99096C119.034 4.68287 118.788 4.4364 118.48 4.4364H106.404C106.096 4.4364 105.849 4.68287 105.849 4.99096C105.849 5.36066 106.096 5.54551 106.404 5.54551Z" fill="#49A6D6"/>
<path d="M122.361 5.54551H124.702C125.01 5.54551 125.257 5.29904 125.257 4.99096C125.257 4.68287 125.01 4.4364 124.702 4.4364H122.361C122.053 4.4364 121.807 4.68287 121.807 4.99096C121.807 5.36066 122.053 5.54551 122.361 5.54551Z" fill="#49A6D6"/>
<path d="M112.072 1.35558C112.072 1.04749 112.318 0.801025 112.626 0.801025H114.167C114.475 0.801025 114.721 1.04749 114.721 1.35558C114.721 1.66366 114.475 1.91013 114.167 1.91013H112.626C112.318 1.91013 112.072 1.66366 112.072 1.35558ZM116.261 1.35558C116.261 1.04749 116.508 0.801025 116.816 0.801025H119.465C119.773 0.801025 120.02 1.04749 120.02 1.35558C120.02 1.66366 119.773 1.91013 119.465 1.91013H116.816C116.508 1.91013 116.261 1.66366 116.261 1.35558ZM121.56 1.35558C121.56 1.04749 121.806 0.801025 122.115 0.801025H124.764C125.072 0.801025 125.318 1.04749 125.318 1.35558C125.318 1.66366 125.072 1.91013 124.764 1.91013H122.115C121.806 1.91013 121.56 1.66366 121.56 1.35558Z" fill="#49A6D6"/>
<path d="M8.07111 52.3128H20.1471C20.4551 52.3128 20.7016 52.0664 20.7016 51.7583C20.7016 51.4502 20.4551 51.2037 20.1471 51.2037H8.07111C7.76305 51.2037 7.5166 51.4502 7.5166 51.7583C7.57821 52.0664 7.82466 52.3128 8.07111 52.3128Z" fill="#49A6D6"/>
<path d="M1.84797 52.3128H4.18922C4.49728 52.3128 4.74373 52.0664 4.74373 51.7583C4.74373 51.4502 4.49728 51.2037 4.18922 51.2037H1.84797C1.53991 51.2037 1.29346 51.4502 1.29346 51.7583C1.35507 52.0664 1.60152 52.3128 1.84797 52.3128Z" fill="#49A6D6"/>
<path d="M93.5271 0C93.5271 0 93.7735 1.7869 91.6787 1.7869C91.6787 1.7869 93.4655 1.78689 93.4655 3.51217C93.4655 3.51217 93.6503 2.1566 95.3138 1.91013C95.2522 1.84851 93.8351 2.1566 93.5271 0Z" fill="#49A6D6"/>
<path d="M16.0188 76.3435C16.0188 76.3435 16.2652 78.1304 14.1704 78.1304C14.1704 78.1304 15.9572 78.1304 15.9572 79.8557C15.9572 79.8557 16.142 78.5001 17.8055 78.2536C17.7439 78.192 16.3268 78.5001 16.0188 76.3435Z" fill="#49A6D6"/>
<path d="M9.98096 135.496C9.98096 134.51 10.7819 133.709 11.7677 133.709C12.7535 133.709 13.5545 134.51 13.5545 135.496C13.5545 136.482 12.7535 137.283 11.7677 137.283C10.7819 137.283 9.98096 136.482 9.98096 135.496ZM10.8435 135.496C10.8435 135.989 11.2748 136.42 11.7677 136.42C12.2606 136.42 12.6919 135.989 12.6919 135.496C12.6919 135.003 12.2606 134.572 11.7677 134.572C11.2748 134.633 10.8435 135.003 10.8435 135.496Z" fill="#49A6D6"/>
<path d="M142.139 25.571H140.167C139.921 25.571 139.736 25.7559 139.736 26.0024C139.736 26.2488 139.921 26.4337 140.167 26.4337H142.139C142.385 26.4337 142.57 26.2488 142.57 26.0024C142.57 25.7559 142.385 25.571 142.139 25.571Z" fill="#49A6D6"/>
<path d="M155.385 25.571H145.342C145.096 25.571 144.911 25.7559 144.911 26.0024C144.911 26.2488 145.096 26.4337 145.342 26.4337H155.385C155.632 26.4337 155.816 26.2488 155.816 26.0024C155.816 25.8175 155.632 25.571 155.385 25.571Z" fill="#49A6D6"/>
<path d="M150.641 29.0833C150.641 29.3298 150.456 29.5146 150.21 29.5146H148.978C148.731 29.5146 148.546 29.3298 148.546 29.0833C148.546 28.8368 148.731 28.652 148.978 28.652H150.21C150.456 28.652 150.641 28.8368 150.641 29.0833ZM147.191 29.0833C147.191 29.3298 147.006 29.5146 146.76 29.5146H144.542C144.295 29.5146 144.11 29.3298 144.11 29.0833C144.11 28.8368 144.295 28.652 144.542 28.652H146.76C147.006 28.652 147.191 28.8368 147.191 29.0833ZM142.816 29.0833C142.816 29.3298 142.632 29.5146 142.385 29.5146H140.167C139.921 29.5146 139.736 29.3298 139.736 29.0833C139.736 28.8368 139.921 28.652 140.167 28.652H142.385C142.57 28.652 142.816 28.8368 142.816 29.0833Z" fill="#49A6D6"/>
<path d="M75.6593 93.0417C75.4129 93.0417 75.228 93.2266 75.228 93.4731V94.5206C75.228 94.767 75.4129 94.9519 75.6593 94.9519C75.9058 94.9519 76.0906 94.767 76.0906 94.5206V93.4731C76.0906 93.2266 75.9058 93.0417 75.6593 93.0417Z" fill="#49A6D6"/>
<path d="M74.4885 91.9943H73.441C73.1946 91.9943 73.0098 92.1791 73.0098 92.4256C73.0098 92.6721 73.1946 92.8569 73.441 92.8569H74.4885C74.7349 92.8569 74.9197 92.6721 74.9197 92.4256C74.9197 92.1791 74.7349 91.9943 74.4885 91.9943Z" fill="#49A6D6"/>
<path d="M75.6593 89.8993C75.4129 89.8993 75.228 90.0842 75.228 90.3306V91.3781C75.228 91.6246 75.4129 91.8094 75.6593 91.8094C75.9058 91.8094 76.0906 91.6246 76.0906 91.3781V90.3306C76.0906 90.0842 75.9058 89.8993 75.6593 89.8993Z" fill="#49A6D6"/>
<path d="M77.8156 91.9326H76.7682C76.5217 91.9326 76.3369 92.1175 76.3369 92.3639C76.3369 92.6104 76.5217 92.7953 76.7682 92.7953H77.8156C78.0621 92.7953 78.2469 92.6104 78.2469 92.3639C78.2469 92.1175 78.0621 91.9326 77.8156 91.9326Z" fill="#49A6D6"/>
<path d="M241.642 58.0432C241.396 58.0432 241.211 58.2281 241.211 58.4745V59.522C241.211 59.7685 241.396 59.9533 241.642 59.9533C241.889 59.9533 242.074 59.7685 242.074 59.522V58.4745C242.135 58.2281 241.889 58.0432 241.642 58.0432Z" fill="#49A6D6"/>
<path d="M240.533 56.9958H239.485C239.239 56.9958 239.054 57.1807 239.054 57.4272C239.054 57.6736 239.239 57.8585 239.485 57.8585H240.533C240.779 57.8585 240.964 57.6736 240.964 57.4272C240.964 57.1807 240.779 56.9958 240.533 56.9958Z" fill="#49A6D6"/>
<path d="M241.642 54.9008C241.396 54.9008 241.211 55.0856 241.211 55.3321V56.3796C241.211 56.626 241.396 56.8109 241.642 56.8109C241.889 56.8109 242.074 56.626 242.074 56.3796V55.3321C242.135 55.0856 241.889 54.9008 241.642 54.9008Z" fill="#49A6D6"/>
<path d="M243.86 56.9342H242.813C242.566 56.9342 242.381 57.1191 242.381 57.3655C242.381 57.612 242.566 57.7968 242.813 57.7968H243.86C244.106 57.7968 244.291 57.612 244.291 57.3655C244.291 57.1191 244.106 56.9342 243.86 56.9342Z" fill="#49A6D6"/>
<path d="M233.755 25.4478H243.798C244.045 25.4478 244.23 25.263 244.23 25.0165C244.23 24.7701 244.045 24.5852 243.798 24.5852H233.755C233.509 24.5852 233.324 24.7701 233.324 25.0165C233.324 25.263 233.509 25.4478 233.755 25.4478Z" fill="#49A6D6"/>
<path d="M228.58 25.4478H230.552C230.798 25.4478 230.983 25.263 230.983 25.0165C230.983 24.7701 230.798 24.5852 230.552 24.5852H228.58C228.334 24.5852 228.149 24.7701 228.149 25.0165C228.149 25.263 228.334 25.4478 228.58 25.4478Z" fill="#49A6D6"/>
<path d="M274.912 139.316C274.05 134.079 271.401 129.396 269.614 124.466C267.334 118.12 268.382 113.006 270.107 106.659C272.633 97.1701 272.694 86.5104 267.765 77.7607C266.41 75.3577 264.623 73.3243 263.268 70.9212C261.789 68.3333 261.111 64.8828 260.803 61.9251C260.495 59.0908 261.05 56.2564 260.927 53.422C260.803 50.9573 260.434 48.5542 259.818 46.1512C258.031 39.4965 253.287 30.9318 245.339 30.9934C235.974 31.1166 233.571 42.3925 233.879 49.7866C234.064 54.9008 234.988 60.3231 233.14 65.3141C231.106 70.6748 225.931 73.8789 222.912 78.6234C218.537 85.5861 217.613 94.6438 220.694 102.284C222.419 106.598 226.239 110.479 226.362 115.286C226.547 120.893 220.386 124.22 217.613 128.348C212.931 135.373 212.684 144.492 215.95 152.133C224.083 169.2 246.633 175.116 262.59 165.565C262.836 165.627 263.083 165.565 263.329 165.38C271.092 159.219 276.638 149.606 274.912 139.316Z" fill="#8FD8FC"/>
<path d="M245.77 182.14C245.893 173.883 246.016 165.688 246.14 157.432C241.087 151.886 236.959 145.724 233.632 139.07C233.201 138.207 234.618 137.652 235.049 138.515C238.068 144.554 241.765 150.161 246.201 155.213C246.324 148.251 246.386 141.288 246.448 134.264C246.386 134.202 246.324 134.202 246.263 134.14C241.087 128.41 236.713 122.125 233.078 115.286C232.647 114.423 234.064 113.868 234.495 114.731C237.822 120.954 241.827 126.746 246.448 132.107C246.509 125.576 246.571 119.044 246.632 112.513C243.244 108.261 240.163 103.825 237.514 99.0802C237.021 98.2176 238.253 97.2933 238.746 98.156C241.087 102.346 243.737 106.289 246.694 110.048C246.756 103.517 246.817 97.0468 246.879 90.5154C246.817 90.4538 246.694 90.3922 246.632 90.3306C244.353 87.6194 242.196 84.8467 240.163 81.9507C239.609 81.1496 240.841 80.2254 241.395 81.0264C243.121 83.4911 245.031 85.9558 246.94 88.2972C247.002 83.9224 247.002 79.5476 247.064 75.2344C247.064 74.2485 248.604 74.0637 248.542 75.0496C248.481 81.088 248.481 87.1265 248.419 93.1034C250.021 90.3306 251.685 87.5578 253.471 84.9083C254.026 84.1073 255.197 85.0315 254.704 85.8325C252.486 89.2215 250.391 92.672 248.419 96.2458C248.358 101.545 248.296 106.844 248.296 112.143C248.296 112.205 248.296 112.266 248.296 112.328C248.296 115.286 248.234 118.243 248.234 121.201C252.67 116.21 256.552 110.849 259.756 104.995C260.249 104.133 261.604 104.749 261.111 105.612C257.538 112.081 253.225 118.058 248.173 123.481C248.111 131.059 247.988 138.577 247.865 146.156C251.5 142.274 255.073 138.454 258.708 134.572C259.386 133.894 260.557 134.756 259.879 135.496C255.874 139.809 251.869 144.061 247.803 148.374C247.68 159.711 247.495 171.049 247.31 182.386C247.249 183.372 245.77 183.126 245.77 182.14Z" fill="#49A6D6"/>
<path opacity="0.5" d="M88.5365 200.132C103.693 200.132 115.954 197.421 115.954 194.032C115.954 190.643 103.693 187.932 88.5365 187.932C73.3799 187.932 61.1191 190.705 61.1191 194.032C61.1191 197.359 73.3799 200.132 88.5365 200.132Z" fill="#A3A8AF"/>
<path d="M106.65 86.7568L77.1996 87.1265C74.5502 87.1881 72.5787 89.468 72.8867 92.1175L79.2944 150.222L182.125 148.99L186.068 98.7722C186.253 97.0469 184.897 95.5065 183.111 95.5065L113.859 96.3075L111.394 89.4064C110.408 87.7427 108.622 86.7568 106.65 86.7568Z" fill="#BFBFBF"/>
<path d="M122.053 125.576L103.877 129.026C94.3275 130.875 85.1473 124.59 83.299 115.101L76.2752 78.2537C74.9814 71.6606 79.2942 65.3141 85.8867 64.0201L114.659 58.4746C121.252 57.1806 127.598 61.4938 128.892 68.0868L135.977 104.934C137.826 114.546 131.541 123.789 122.053 125.576Z" fill="#E2E4E6"/>
<path d="M128.584 61.9252L127.413 64.6979L110.532 128.595L124.333 132.23L132.466 129.026L128.584 61.9252Z" fill="#CACDD0"/>
<path d="M173.253 129.088L120.082 122.31L127.167 66.4232C127.906 60.4463 133.39 56.1948 139.366 56.9958L170.911 61.0009C176.888 61.7403 181.139 67.2242 180.338 73.2011L173.253 129.088Z" fill="#E6E8EA"/>
<path d="M175.902 178.196L86.01 179.244C80.9578 179.306 76.6449 175.608 75.9056 170.556L68.6354 117.688C67.8344 111.712 72.3937 106.351 78.4933 106.289L181.755 105.057C187.793 104.995 192.537 110.233 191.859 116.271L185.821 169.324C185.205 174.315 180.954 178.135 175.902 178.196Z" fill="white"/>
<path d="M175.347 179.614L81.389 180.723C78.9861 180.723 76.9529 178.998 76.5832 176.594L68.8201 120.215C67.8959 113.622 73.0097 107.707 79.6638 107.645L180.584 106.474C187.238 106.413 192.475 112.205 191.736 118.798L185.883 170.125C185.267 175.485 180.708 179.552 175.347 179.614Z" fill="#E6E8EA"/>
<path d="M164.442 77.6376L141.892 74.8032C140.105 74.5568 138.873 72.9547 139.119 71.2294L139.181 70.7365C139.427 68.9496 141.029 67.7173 142.754 67.9637L165.304 70.7981C167.091 71.0446 168.323 72.6466 168.077 74.3719L168.015 74.8648C167.83 76.5901 166.167 77.8225 164.442 77.6376Z" fill="white"/>
<path d="M162.594 91.5014L140.044 88.667C138.257 88.4205 137.025 86.8185 137.271 85.0932L137.333 84.6003C137.579 82.8134 139.181 81.581 140.906 81.8275L163.456 84.6619C165.243 84.9084 166.475 86.5104 166.229 88.2357L166.167 88.7286C165.982 90.5155 164.319 91.7478 162.594 91.5014Z" fill="white"/>
<path opacity="0.42" d="M112.996 87.8042L107.451 84.6618L110.593 79.1162C111.332 77.8223 110.901 76.1586 109.607 75.4192C108.313 74.6798 106.65 75.1111 105.911 76.4051L102.768 81.9506L97.2233 78.8081C95.9295 78.0687 94.2659 78.5001 93.5266 79.794C92.7872 81.088 93.2185 82.7516 94.5124 83.491L100.057 86.6335L96.9153 92.179C96.1759 93.473 96.6072 95.1367 97.901 95.8761C99.1949 96.6155 100.858 96.1841 101.598 94.8902L104.74 89.3447L110.285 92.4871C111.579 93.2265 113.242 92.7952 113.982 91.5013C114.721 90.1457 114.29 88.5436 112.996 87.8042Z" fill="white"/>
<path opacity="0.2" d="M101.659 171.234L99.3798 168.954C100.612 170.186 100.612 172.158 99.3798 173.329L78.6782 194.032C77.4459 195.264 75.4743 195.264 74.3037 194.032L76.5834 196.312C77.8156 197.544 79.7872 197.544 80.9578 196.312L101.659 175.609C102.892 174.438 102.892 172.466 101.659 171.234Z" fill="white"/>
<path d="M134.375 154.289L127.721 147.634L134.375 140.98C135.793 139.563 135.793 137.344 134.375 135.927L134.006 135.558C132.589 134.14 130.371 134.14 128.954 135.558L122.299 142.212L115.645 135.558C114.228 134.14 112.01 134.14 110.593 135.558L110.224 135.927C108.806 137.344 108.806 139.563 110.224 140.98L116.878 147.634L110.162 154.289C108.745 155.706 108.745 157.925 110.162 159.342L110.532 159.711C111.949 161.129 114.167 161.129 115.584 159.711L122.238 153.057L128.892 159.711C130.309 161.129 132.527 161.129 133.944 159.711L134.314 159.342C135.793 157.925 135.793 155.645 134.375 154.289Z" fill="#A3A8AF"/>
<path d="M109.546 164.764L104.987 160.204L87.0576 178.135L91.6169 182.695L109.546 164.764Z" fill="#1E5B89"/>
<path opacity="0.2" d="M108.806 165.072C107.513 163.778 106.465 162.361 105.603 160.82L105.11 160.328L101.844 163.593C102.83 165.257 104.124 166.921 105.541 168.399C105.664 168.523 105.726 168.584 105.849 168.707L109.114 165.442C108.93 165.257 108.868 165.134 108.806 165.072Z" fill="black"/>
<path d="M75.7828 195.634L74.1809 194.032C72.579 192.368 72.579 189.781 74.1809 188.179L93.4655 168.892C95.129 167.229 97.7167 167.229 99.3186 168.892L100.921 170.494C102.522 172.096 102.522 174.746 100.921 176.348L81.636 195.634C80.0341 197.236 77.4464 197.236 75.7828 195.634Z" fill="#F95B03"/>
<path d="M139.489 130.32C130.001 120.831 114.536 120.831 105.11 130.32C95.6216 139.809 95.6216 155.275 105.11 164.702C114.598 174.191 130.063 174.191 139.489 164.702C148.978 155.275 148.978 139.871 139.489 130.32ZM108.314 161.437C100.612 153.735 100.612 141.288 108.314 133.647C116.015 125.945 128.461 125.945 136.101 133.647C143.802 141.349 143.802 153.796 136.101 161.437C128.522 169.2 116.077 169.2 108.314 161.437Z" fill="#1E5B89"/>
<path opacity="0.2" d="M137.271 132.6C129.015 124.343 115.584 124.343 107.328 132.6C99.0717 140.857 99.0717 154.289 107.328 162.546C115.584 170.803 129.015 170.803 137.271 162.546C145.527 154.289 145.527 140.857 137.271 132.6ZM108.314 161.437C100.612 153.735 100.612 141.288 108.314 133.647C116.015 125.945 128.461 125.945 136.101 133.647C143.802 141.35 143.802 153.796 136.101 161.437C128.522 169.201 116.077 169.201 108.314 161.437Z" fill="black"/>
</g>
<defs>
<clipPath id="clip0">
<rect width="281.32" height="205" fill="white"/>
</clipPath>
</defs>
</svg>
